<svg xmlns="http://www.w3.org/2000/svg" viewBox="-248.21 -26.59 496.42 186.9" width="496.42" height="186.9" role="img" aria-label="Stuckato"><rect x="-248.21" y="-26.59" width="496.42" height="186.9" fill="#F5E4CA"/><g transform="translate(-149.28 85.68)"><g transform="translate(-36.77 -41.72)"><g transform="translate(-35.57 40.85) scale(0.59738)"><path d="M76.44 -141.96C45.76 -141.96 24.44 -126.36 24.44 -98.8C24.44 -80.6 34.32 -70.72 52.52 -58.24C67.6 -47.84 72.28 -41.08 72.28 -30.68C72.28 -19.24 62.4 -7.28 45.76 -7.28C32.76 -7.28 23.92 -11.44 23.92 -15.08C23.92 -17.68 27.04 -16.64 32.76 -20.28C37.44 -23.4 40.04 -28.6 40.04 -35.36C40.04 -45.76 31.2 -52.52 21.32 -52.52C8.84 -52.52 0 -42.12 0 -28.08C0 -10.92 17.68 5.2 45.24 5.2C79.04 5.2 105.04 -13 105.04 -43.16C105.04 -57.72 99.84 -68.64 79.56 -83.72C60.84 -97.76 54.6 -103.48 54.6 -113.36C54.6 -121.68 60.84 -130.52 76.96 -130.52C85.8 -130.52 93.08 -128.44 93.08 -124.8C93.08 -122.72 90.48 -122.72 86.84 -120.12C83.72 -117.52 81.64 -113.36 81.64 -107.64C81.64 -97.24 89.44 -91 99.84 -91C112.32 -91 119.08 -100.88 119.08 -110.76C119.08 -130 102.96 -141.96 76.44 -141.96Z" fill="#000000"/></g></g><path d="M31.8 0.6Q21.9 0.6 16.45 -4.75Q11 -10.1 11 -19.7V-41.6H1.8V-54.6H2.3Q6.5 -54.6 8.75 -56.7Q11 -58.8 11 -63V-67H26V-54.6H38.8V-41.6H26V-20.7Q26 -17.9 27 -16.05Q28 -14.2 30.1 -13.3Q32.2 -12.4 35.3 -12.4Q36 -12.4 36.9 -12.5Q37.8 -12.6 38.8 -12.7V0Q37.3 0.2 35.4 0.4Q33.5 0.6 31.8 0.6Z M65.2 1.2Q58.6 1.2 53.95 -1.65Q49.3 -4.5 46.9 -9.6Q44.5 -14.7 44.5 -21.5V-54.6H59.5V-22.7Q59.5 -19.6 60.75 -17.25Q62 -14.9 64.3 -13.6Q66.6 -12.3 69.5 -12.3Q72.5 -12.3 74.75 -13.6Q77 -14.9 78.25 -17.25Q79.5 -19.6 79.5 -22.7V-54.6H94.5V0H80.5V-10.8L81.3 -8.4Q79.4 -3.5 75.15 -1.15Q70.9 1.2 65.2 1.2Z M130.3 1.2Q122.1 1.2 115.55 -2.55Q109 -6.3 105.15 -12.8Q101.3 -19.3 101.3 -27.4Q101.3 -35.5 105.1 -41.95Q108.9 -48.4 115.5 -52.1Q122.1 -55.8 130.3 -55.8Q136.4 -55.8 141.6 -53.7Q146.8 -51.6 150.5 -47.85Q154.2 -44.1 155.8 -39L142.8 -33.4Q141.4 -37.5 138.05 -39.9Q134.7 -42.3 130.3 -42.3Q126.4 -42.3 123.35 -40.4Q120.3 -38.5 118.55 -35.1Q116.8 -31.7 116.8 -27.3Q116.8 -22.9 118.55 -19.5Q120.3 -16.1 123.35 -14.2Q126.4 -12.3 130.3 -12.3Q134.8 -12.3 138.1 -14.7Q141.4 -17.1 142.8 -21.2L155.8 -15.5Q154.3 -10.7 150.6 -6.9Q146.9 -3.1 141.7 -0.95Q136.5 1.2 130.3 1.2Z M162.6 0V-75.7H177.6V-27.2L172 -29L196.1 -54.6H214.6L194.8 -32.6L214.5 0H197.5L181 -27.7L189.7 -29.9L173 -11.7L177.6 -20.4V0Z M236.1 1.2Q230.2 1.2 225.9 -0.7Q221.6 -2.6 219.3 -6.15Q217 -9.7 217 -14.6Q217 -19.2 219.1 -22.75Q221.2 -26.3 225.55 -28.7Q229.9 -31.1 236.4 -32.1L253.1 -34.8V-23.8L239.1 -21.3Q235.9 -20.7 234.2 -19.25Q232.5 -17.8 232.5 -15.1Q232.5 -12.6 234.4 -11.2Q236.3 -9.8 239.1 -9.8Q242.8 -9.8 245.6 -11.4Q248.4 -13 249.95 -15.75Q251.5 -18.5 251.5 -21.8V-36Q251.5 -39.1 249.05 -41.2Q246.6 -43.3 242.4 -43.3Q238.4 -43.3 235.35 -41.1Q232.3 -38.9 230.9 -35.3L218.9 -41Q220.5 -45.6 224 -48.9Q227.5 -52.2 232.4 -54Q237.3 -55.8 243.1 -55.8Q250 -55.8 255.3 -53.3Q260.6 -50.8 263.55 -46.35Q266.5 -41.9 266.5 -36V0H252.5V-8.8L255.9 -9.4Q253.5 -5.8 250.6 -3.45Q247.7 -1.1 244.1 0.05Q240.5 1.2 236.1 1.2Z M300.8 0.6Q290.9 0.6 285.45 -4.75Q280 -10.1 280 -19.7V-41.6H270.8V-54.6H271.3Q275.5 -54.6 277.75 -56.7Q280 -58.8 280 -63V-67H295V-54.6H307.8V-41.6H295V-20.7Q295 -17.9 296 -16.05Q297 -14.2 299.1 -13.3Q301.2 -12.4 304.3 -12.4Q305 -12.4 305.9 -12.5Q306.8 -12.6 307.8 -12.7V0Q306.3 0.2 304.4 0.4Q302.5 0.6 300.8 0.6Z M341.7 1.2Q333.6 1.2 326.95 -2.5Q320.3 -6.2 316.35 -12.65Q312.4 -19.1 312.4 -27.3Q312.4 -35.6 316.35 -42Q320.3 -48.4 326.95 -52.1Q333.6 -55.8 341.7 -55.8Q349.8 -55.8 356.4 -52.1Q363 -48.4 366.95 -42Q370.9 -35.6 370.9 -27.3Q370.9 -19.1 366.95 -12.65Q363 -6.2 356.4 -2.5Q349.8 1.2 341.7 1.2ZM341.7 -12.3Q345.8 -12.3 348.85 -14.2Q351.9 -16.1 353.65 -19.5Q355.4 -22.9 355.4 -27.3Q355.4 -31.7 353.65 -35.05Q351.9 -38.4 348.85 -40.35Q345.8 -42.3 341.7 -42.3Q337.6 -42.3 334.5 -40.35Q331.4 -38.4 329.65 -35.05Q327.9 -31.7 327.9 -27.3Q327.9 -22.9 329.65 -19.5Q331.4 -16.1 334.5 -14.2Q337.6 -12.3 341.7 -12.3Z" fill="#000000"/></g><g transform="translate(-176.59 128.43)"><path d="M8.14 0.29Q6.43 0.29 5.02 -0.35Q3.6 -0.98 2.62 -2.09Q1.63 -3.19 1.2 -4.56L3.24 -5.4Q3.89 -3.67 5.17 -2.75Q6.46 -1.82 8.18 -1.82Q9.24 -1.82 10.03 -2.16Q10.82 -2.5 11.27 -3.11Q11.71 -3.72 11.71 -4.54Q11.71 -5.66 11.08 -6.32Q10.44 -6.98 9.22 -7.32L5.93 -8.33Q3.98 -8.93 2.95 -10.22Q1.92 -11.52 1.92 -13.2Q1.92 -14.66 2.63 -15.78Q3.34 -16.9 4.6 -17.53Q5.86 -18.17 7.46 -18.17Q9.07 -18.17 10.38 -17.59Q11.69 -17.02 12.6 -16.04Q13.51 -15.07 13.94 -13.82L11.93 -12.98Q11.35 -14.5 10.2 -15.28Q9.05 -16.06 7.49 -16.06Q6.53 -16.06 5.8 -15.73Q5.06 -15.41 4.67 -14.8Q4.27 -14.18 4.27 -13.34Q4.27 -12.36 4.9 -11.59Q5.52 -10.82 6.79 -10.42L9.79 -9.53Q11.9 -8.88 12.98 -7.68Q14.06 -6.48 14.06 -4.7Q14.06 -3.24 13.31 -2.11Q12.55 -0.98 11.22 -0.35Q9.89 0.29 8.14 0.29Z M18.67 0V-18.17H20.9V-10.42L20.5 -10.63Q20.98 -11.86 22.04 -12.54Q23.11 -13.22 24.55 -13.22Q25.94 -13.22 27.04 -12.6Q28.13 -11.98 28.76 -10.87Q29.4 -9.77 29.4 -8.38V0H27.14V-7.66Q27.14 -8.74 26.75 -9.48Q26.35 -10.22 25.66 -10.64Q24.96 -11.06 24.05 -11.06Q23.16 -11.06 22.44 -10.64Q21.72 -10.22 21.31 -9.47Q20.9 -8.71 20.9 -7.66V0Z M40.18 0.29Q38.3 0.29 36.79 -0.59Q35.28 -1.46 34.39 -3Q33.5 -4.54 33.5 -6.48Q33.5 -8.42 34.38 -9.94Q35.26 -11.45 36.77 -12.34Q38.28 -13.22 40.18 -13.22Q42.05 -13.22 43.56 -12.35Q45.07 -11.47 45.95 -9.96Q46.82 -8.45 46.82 -6.48Q46.82 -4.51 45.91 -2.99Q45 -1.46 43.5 -0.59Q42 0.29 40.18 0.29ZM40.18 -1.87Q41.38 -1.87 42.35 -2.47Q43.32 -3.07 43.88 -4.13Q44.45 -5.18 44.45 -6.48Q44.45 -7.8 43.88 -8.82Q43.32 -9.84 42.35 -10.45Q41.38 -11.06 40.18 -11.06Q38.95 -11.06 37.98 -10.45Q37.01 -9.84 36.43 -8.82Q35.86 -7.8 35.86 -6.48Q35.86 -5.18 36.43 -4.13Q37.01 -3.07 37.98 -2.47Q38.95 -1.87 40.18 -1.87Z M51.17 0V-12.94H53.35V-10.56L53.11 -10.9Q53.57 -12 54.5 -12.54Q55.44 -13.08 56.78 -13.08H57.58V-10.97H56.45Q55.08 -10.97 54.24 -10.12Q53.4 -9.26 53.4 -7.7V0Z M66.38 0.14Q64.49 0.14 63.47 -0.94Q62.45 -2.02 62.45 -3.98V-10.8H60.1V-12.94H60.58Q61.44 -12.94 61.94 -13.46Q62.45 -13.99 62.45 -14.86V-15.91H64.68V-12.94H67.58V-10.8H64.68V-4.06Q64.68 -3.41 64.88 -2.93Q65.09 -2.45 65.57 -2.17Q66.05 -1.9 66.84 -1.9Q67.01 -1.9 67.26 -1.92Q67.51 -1.94 67.73 -1.97V0Q67.42 0.07 67.03 0.11Q66.65 0.14 66.38 0.14Z M84.36 0.29Q82.8 0.29 81.52 -0.41Q80.23 -1.1 79.54 -2.38L79.85 -2.76V0H77.66V-18.17H79.9V-10.15L79.56 -10.7Q80.28 -11.86 81.53 -12.54Q82.78 -13.22 84.38 -13.22Q86.21 -13.22 87.66 -12.34Q89.11 -11.45 89.95 -9.92Q90.79 -8.4 90.79 -6.46Q90.79 -4.56 89.95 -3.02Q89.11 -1.49 87.66 -0.6Q86.21 0.29 84.36 0.29ZM84.19 -1.87Q85.42 -1.87 86.38 -2.47Q87.34 -3.07 87.88 -4.12Q88.42 -5.16 88.42 -6.46Q88.42 -7.8 87.88 -8.82Q87.34 -9.84 86.38 -10.45Q85.42 -11.06 84.19 -11.06Q82.97 -11.06 82 -10.46Q81.02 -9.86 80.46 -8.82Q79.9 -7.78 79.9 -6.46Q79.9 -5.16 80.46 -4.12Q81.02 -3.07 82 -2.47Q82.97 -1.87 84.19 -1.87Z M99.74 0.29Q98.35 0.29 97.24 -0.36Q96.12 -1.01 95.51 -2.17Q94.9 -3.34 94.9 -4.85V-12.94H97.13V-5.09Q97.13 -4.13 97.52 -3.41Q97.92 -2.69 98.63 -2.28Q99.34 -1.87 100.25 -1.87Q101.16 -1.87 101.87 -2.28Q102.58 -2.69 102.97 -3.46Q103.37 -4.22 103.37 -5.28V-12.94H105.62V0H103.44V-2.52L103.8 -2.3Q103.34 -1.08 102.25 -0.4Q101.16 0.29 99.74 0.29Z M110.52 0V-12.94H112.7V-10.56L112.46 -10.9Q112.92 -12 113.86 -12.54Q114.79 -13.08 116.14 -13.08H116.93V-10.97H115.8Q114.43 -10.97 113.59 -10.12Q112.75 -9.26 112.75 -7.7V0Z M124.99 0.29Q123.05 0.29 121.61 -0.67Q120.17 -1.63 119.57 -3.26L121.34 -4.13Q121.9 -2.98 122.86 -2.3Q123.82 -1.63 124.99 -1.63Q126.05 -1.63 126.74 -2.14Q127.44 -2.64 127.44 -3.46Q127.44 -4.03 127.12 -4.38Q126.79 -4.73 126.34 -4.93Q125.88 -5.14 125.5 -5.23L123.55 -5.78Q121.8 -6.29 121 -7.22Q120.19 -8.16 120.19 -9.41Q120.19 -10.56 120.78 -11.41Q121.37 -12.26 122.39 -12.74Q123.41 -13.22 124.68 -13.22Q126.38 -13.22 127.74 -12.36Q129.1 -11.5 129.67 -9.94L127.85 -9.1Q127.42 -10.1 126.55 -10.69Q125.69 -11.28 124.61 -11.28Q123.62 -11.28 123.05 -10.79Q122.47 -10.3 122.47 -9.55Q122.47 -9 122.76 -8.65Q123.05 -8.3 123.46 -8.12Q123.86 -7.94 124.25 -7.82L126.36 -7.2Q127.94 -6.74 128.82 -5.78Q129.7 -4.82 129.7 -3.48Q129.7 -2.4 129.1 -1.54Q128.5 -0.67 127.44 -0.19Q126.38 0.29 124.99 0.29Z M139.32 0.14Q137.42 0.14 136.4 -0.94Q135.38 -2.02 135.38 -3.98V-10.8H133.03V-12.94H133.51Q134.38 -12.94 134.88 -13.46Q135.38 -13.99 135.38 -14.86V-15.91H137.62V-12.94H140.52V-10.8H137.62V-4.06Q137.62 -3.41 137.82 -2.93Q138.02 -2.45 138.5 -2.17Q138.98 -1.9 139.78 -1.9Q139.94 -1.9 140.2 -1.92Q140.45 -1.94 140.66 -1.97V0Q140.35 0.07 139.97 0.11Q139.58 0.14 139.32 0.14Z M149.64 0.29Q147.7 0.29 146.26 -0.67Q144.82 -1.63 144.22 -3.26L145.99 -4.13Q146.54 -2.98 147.5 -2.3Q148.46 -1.63 149.64 -1.63Q150.7 -1.63 151.39 -2.14Q152.09 -2.64 152.09 -3.46Q152.09 -4.03 151.76 -4.38Q151.44 -4.73 150.98 -4.93Q150.53 -5.14 150.14 -5.23L148.2 -5.78Q146.45 -6.29 145.64 -7.22Q144.84 -8.16 144.84 -9.41Q144.84 -10.56 145.43 -11.41Q146.02 -12.26 147.04 -12.74Q148.06 -13.22 149.33 -13.22Q151.03 -13.22 152.39 -12.36Q153.74 -11.5 154.32 -9.94L152.5 -9.1Q152.06 -10.1 151.2 -10.69Q150.34 -11.28 149.26 -11.28Q148.27 -11.28 147.7 -10.79Q147.12 -10.3 147.12 -9.55Q147.12 -9 147.41 -8.65Q147.7 -8.3 148.1 -8.12Q148.51 -7.94 148.9 -7.82L151.01 -7.2Q152.59 -6.74 153.47 -5.78Q154.34 -4.82 154.34 -3.48Q154.34 -2.4 153.74 -1.54Q153.14 -0.67 152.09 -0.19Q151.03 0.29 149.64 0.29Z M159.62 0V-2.88H161.95V0Z M173.62 0V-17.88H179.93Q181.7 -17.88 183.05 -17.21Q184.39 -16.54 185.15 -15.29Q185.9 -14.04 185.9 -12.36Q185.9 -10.46 184.94 -9.14Q183.98 -7.82 182.35 -7.25L186.5 0H183.77L179.4 -7.75L180.96 -6.84H175.97V0ZM175.97 -9H180Q181.06 -9 181.85 -9.41Q182.64 -9.82 183.08 -10.58Q183.53 -11.35 183.53 -12.36Q183.53 -13.39 183.08 -14.15Q182.64 -14.9 181.85 -15.31Q181.06 -15.72 180 -15.72H175.97Z M195.58 0.29Q193.7 0.29 192.24 -0.6Q190.78 -1.49 189.94 -3.04Q189.1 -4.58 189.1 -6.5Q189.1 -8.45 189.92 -9.96Q190.75 -11.47 192.18 -12.35Q193.61 -13.22 195.38 -13.22Q196.82 -13.22 197.94 -12.71Q199.06 -12.19 199.84 -11.32Q200.62 -10.44 201.04 -9.32Q201.46 -8.21 201.46 -7.01Q201.46 -6.74 201.42 -6.42Q201.38 -6.1 201.34 -5.81H190.73V-7.73H200.04L198.98 -6.86Q199.2 -8.11 198.74 -9.1Q198.29 -10.08 197.4 -10.66Q196.51 -11.23 195.38 -11.23Q194.26 -11.23 193.32 -10.66Q192.38 -10.08 191.87 -9.01Q191.35 -7.94 191.45 -6.48Q191.35 -5.06 191.89 -4Q192.43 -2.93 193.43 -2.34Q194.42 -1.75 195.6 -1.75Q196.9 -1.75 197.78 -2.35Q198.67 -2.95 199.22 -3.89L201.1 -2.93Q200.71 -2.04 199.91 -1.31Q199.1 -0.58 198.01 -0.14Q196.92 0.29 195.58 0.29Z M209.42 0.29Q208.15 0.29 207.18 -0.18Q206.21 -0.65 205.66 -1.48Q205.1 -2.3 205.1 -3.38Q205.1 -4.42 205.55 -5.24Q205.99 -6.07 206.94 -6.65Q207.89 -7.22 209.33 -7.46L214.13 -8.26V-6.38L209.83 -5.66Q208.58 -5.45 208.02 -4.87Q207.46 -4.3 207.46 -3.46Q207.46 -2.66 208.09 -2.14Q208.73 -1.61 209.69 -1.61Q210.91 -1.61 211.81 -2.12Q212.71 -2.64 213.23 -3.53Q213.74 -4.42 213.74 -5.5V-8.78Q213.74 -9.84 212.96 -10.5Q212.18 -11.16 210.91 -11.16Q209.81 -11.16 208.96 -10.6Q208.1 -10.03 207.7 -9.1L205.75 -10.1Q206.11 -10.99 206.9 -11.7Q207.7 -12.41 208.75 -12.82Q209.81 -13.22 210.96 -13.22Q212.45 -13.22 213.58 -12.66Q214.7 -12.1 215.34 -11.1Q215.98 -10.1 215.98 -8.78V0H213.79V-2.45L214.2 -2.3Q213.79 -1.54 213.1 -0.96Q212.4 -0.38 211.46 -0.05Q210.53 0.29 209.42 0.29Z M220.87 0V-18.17H223.1V0Z M233.59 4.8V-12.94H235.78V-10.15L235.49 -10.7Q236.21 -11.86 237.46 -12.54Q238.7 -13.22 240.31 -13.22Q242.14 -13.22 243.59 -12.34Q245.04 -11.45 245.88 -9.92Q246.72 -8.4 246.72 -6.46Q246.72 -4.56 245.88 -3.02Q245.04 -1.49 243.59 -0.6Q242.14 0.29 240.29 0.29Q238.73 0.29 237.44 -0.41Q236.16 -1.1 235.46 -2.38L235.82 -2.76V4.8ZM240.12 -1.87Q241.34 -1.87 242.3 -2.47Q243.26 -3.07 243.8 -4.12Q244.34 -5.16 244.34 -6.46Q244.34 -7.8 243.8 -8.82Q243.26 -9.84 242.3 -10.45Q241.34 -11.06 240.12 -11.06Q238.9 -11.06 237.92 -10.46Q236.95 -9.86 236.39 -8.82Q235.82 -7.78 235.82 -6.46Q235.82 -5.16 236.39 -4.12Q236.95 -3.07 237.92 -2.47Q238.9 -1.87 240.12 -1.87Z M251.09 0V-12.94H253.27V-10.56L253.03 -10.9Q253.49 -12 254.42 -12.54Q255.36 -13.08 256.7 -13.08H257.5V-10.97H256.37Q255 -10.97 254.16 -10.12Q253.32 -9.26 253.32 -7.7V0Z M267.07 0.29Q265.2 0.29 263.69 -0.59Q262.18 -1.46 261.29 -3Q260.4 -4.54 260.4 -6.48Q260.4 -8.42 261.28 -9.94Q262.15 -11.45 263.66 -12.34Q265.18 -13.22 267.07 -13.22Q268.94 -13.22 270.46 -12.35Q271.97 -11.47 272.84 -9.96Q273.72 -8.45 273.72 -6.48Q273.72 -4.51 272.81 -2.99Q271.9 -1.46 270.4 -0.59Q268.9 0.29 267.07 0.29ZM267.07 -1.87Q268.27 -1.87 269.24 -2.47Q270.22 -3.07 270.78 -4.13Q271.34 -5.18 271.34 -6.48Q271.34 -7.8 270.78 -8.82Q270.22 -9.84 269.24 -10.45Q268.27 -11.06 267.07 -11.06Q265.85 -11.06 264.88 -10.45Q263.9 -9.84 263.33 -8.82Q262.75 -7.8 262.75 -6.48Q262.75 -5.18 263.33 -4.13Q263.9 -3.07 264.88 -2.47Q265.85 -1.87 267.07 -1.87Z M284.23 5.28Q282.86 5.28 281.7 4.85Q280.54 4.42 279.71 3.66Q278.88 2.9 278.45 1.9L280.54 0.94Q280.87 1.85 281.82 2.48Q282.77 3.12 284.21 3.12Q285.31 3.12 286.21 2.7Q287.11 2.28 287.64 1.45Q288.17 0.62 288.17 -0.55V-3.46L288.58 -3.02Q287.9 -1.7 286.64 -1.01Q285.38 -0.31 283.87 -0.31Q282.05 -0.31 280.61 -1.16Q279.17 -2.02 278.35 -3.49Q277.54 -4.97 277.54 -6.77Q277.54 -8.59 278.35 -10.06Q279.17 -11.52 280.6 -12.37Q282.02 -13.22 283.85 -13.22Q285.36 -13.22 286.6 -12.54Q287.83 -11.86 288.58 -10.66L288.24 -10.06V-12.94H290.42V-0.55Q290.42 1.13 289.63 2.45Q288.84 3.77 287.44 4.52Q286.03 5.28 284.23 5.28ZM284.06 -2.47Q285.22 -2.47 286.14 -3.05Q287.06 -3.62 287.62 -4.6Q288.17 -5.57 288.17 -6.77Q288.17 -7.94 287.62 -8.93Q287.06 -9.91 286.14 -10.49Q285.22 -11.06 284.06 -11.06Q282.89 -11.06 281.93 -10.49Q280.97 -9.91 280.43 -8.94Q279.89 -7.97 279.89 -6.77Q279.89 -5.57 280.43 -4.6Q280.97 -3.62 281.92 -3.05Q282.86 -2.47 284.06 -2.47Z M295.32 0V-12.94H297.5V-10.56L297.26 -10.9Q297.72 -12 298.66 -12.54Q299.59 -13.08 300.94 -13.08H301.73V-10.97H300.6Q299.23 -10.97 298.39 -10.12Q297.55 -9.26 297.55 -7.7V0Z M311.11 0.29Q309.24 0.29 307.78 -0.6Q306.31 -1.49 305.47 -3.04Q304.63 -4.58 304.63 -6.5Q304.63 -8.45 305.46 -9.96Q306.29 -11.47 307.72 -12.35Q309.14 -13.22 310.92 -13.22Q312.36 -13.22 313.48 -12.71Q314.59 -12.19 315.37 -11.32Q316.15 -10.44 316.57 -9.32Q316.99 -8.21 316.99 -7.01Q316.99 -6.74 316.96 -6.42Q316.92 -6.1 316.87 -5.81H306.26V-7.73H315.58L314.52 -6.86Q314.74 -8.11 314.28 -9.1Q313.82 -10.08 312.94 -10.66Q312.05 -11.23 310.92 -11.23Q309.79 -11.23 308.86 -10.66Q307.92 -10.08 307.4 -9.01Q306.89 -7.94 306.98 -6.48Q306.89 -5.06 307.43 -4Q307.97 -2.93 308.96 -2.34Q309.96 -1.75 311.14 -1.75Q312.43 -1.75 313.32 -2.35Q314.21 -2.95 314.76 -3.89L316.63 -2.93Q316.25 -2.04 315.44 -1.31Q314.64 -0.58 313.55 -0.14Q312.46 0.29 311.11 0.29Z M325.97 0.29Q324.02 0.29 322.58 -0.67Q321.14 -1.63 320.54 -3.26L322.32 -4.13Q322.87 -2.98 323.83 -2.3Q324.79 -1.63 325.97 -1.63Q327.02 -1.63 327.72 -2.14Q328.42 -2.64 328.42 -3.46Q328.42 -4.03 328.09 -4.38Q327.77 -4.73 327.31 -4.93Q326.86 -5.14 326.47 -5.23L324.53 -5.78Q322.78 -6.29 321.97 -7.22Q321.17 -8.16 321.17 -9.41Q321.17 -10.56 321.76 -11.41Q322.34 -12.26 323.36 -12.74Q324.38 -13.22 325.66 -13.22Q327.36 -13.22 328.72 -12.36Q330.07 -11.5 330.65 -9.94L328.82 -9.1Q328.39 -10.1 327.53 -10.69Q326.66 -11.28 325.58 -11.28Q324.6 -11.28 324.02 -10.79Q323.45 -10.3 323.45 -9.55Q323.45 -9 323.74 -8.65Q324.02 -8.3 324.43 -8.12Q324.84 -7.94 325.22 -7.82L327.34 -7.2Q328.92 -6.74 329.8 -5.78Q330.67 -4.82 330.67 -3.48Q330.67 -2.4 330.07 -1.54Q329.47 -0.67 328.42 -0.19Q327.36 0.29 325.97 0.29Z M339.67 0.29Q337.73 0.29 336.29 -0.67Q334.85 -1.63 334.25 -3.26L336.02 -4.13Q336.58 -2.98 337.54 -2.3Q338.5 -1.63 339.67 -1.63Q340.73 -1.63 341.42 -2.14Q342.12 -2.64 342.12 -3.46Q342.12 -4.03 341.8 -4.38Q341.47 -4.73 341.02 -4.93Q340.56 -5.14 340.18 -5.23L338.23 -5.78Q336.48 -6.29 335.68 -7.22Q334.87 -8.16 334.87 -9.41Q334.87 -10.56 335.46 -11.41Q336.05 -12.26 337.07 -12.74Q338.09 -13.22 339.36 -13.22Q341.06 -13.22 342.42 -12.36Q343.78 -11.5 344.35 -9.94L342.53 -9.1Q342.1 -10.1 341.23 -10.69Q340.37 -11.28 339.29 -11.28Q338.3 -11.28 337.73 -10.79Q337.15 -10.3 337.15 -9.55Q337.15 -9 337.44 -8.65Q337.73 -8.3 338.14 -8.12Q338.54 -7.94 338.93 -7.82L341.04 -7.2Q342.62 -6.74 343.5 -5.78Q344.38 -4.82 344.38 -3.48Q344.38 -2.4 343.78 -1.54Q343.18 -0.67 342.12 -0.19Q341.06 0.29 339.67 0.29Z M349.66 0V-2.88H351.98V0Z" fill="#000000"/></g></svg>
