<svg xmlns="http://www.w3.org/2000/svg" viewBox="0 0 416 129" width="416" height="129" role="img" aria-label="Stuckato">
  <rect width="416" height="129" fill="#F5E4CA"/>
  <path d="M40.14251 73.748Q33.702510000000004 73.748 28.044510000000002 71.40200000000002Q22.38651 69.05600000000001 18.29251 64.732Q14.198509999999999 60.408 12.17451 54.52000000000001L23.85851 49.27600000000001Q26.43451 54.888000000000005 30.988509999999998 58.108000000000004Q35.54251 61.328 41.06251 61.328Q44.006510000000006 61.328 46.122510000000005 60.408Q48.238510000000005 59.48800000000001 49.43451 57.878Q50.63051 56.268 50.63051 54.06Q50.63051 51.668000000000006 49.15851 49.96600000000001Q47.68651 48.26400000000001 44.55851 47.25200000000001L31.12651 42.836000000000006Q22.93851 40.168000000000006 18.79851 35.24600000000001Q14.65851 30.324000000000005 14.65851 23.424000000000007Q14.65851 17.352000000000004 17.64851 12.752000000000002Q20.63851 8.152000000000001 26.02051 5.5760000000000005Q31.40251 3.0 38.39451 3.0Q44.55851 3.0 49.80251 5.116000000000007Q55.04651 7.2320000000000135 58.864509999999996 11.09600000000001Q62.68250999999999 14.960000000000008 64.61451 20.388000000000005L53.02251 25.632000000000005Q51.090509999999995 20.848000000000006 47.22651 18.134000000000007Q43.36251 15.420000000000009 38.39451 15.420000000000009Q35.54251 15.420000000000009 33.33451 16.340000000000007Q31.12651 17.260000000000005 29.930509999999998 18.962000000000007Q28.73451 20.66400000000001 28.73451 22.872000000000007Q28.73451 25.264000000000003 30.29851 27.058000000000003Q31.86251 28.852000000000004 34.99051 29.864000000000004L48.146510000000006 34.096000000000004Q56.42650999999999 36.764 60.520509999999994 41.548Q64.61451 46.33200000000001 64.61451 53.232000000000006Q64.61451 59.212 61.486509999999996 63.858000000000004Q58.358509999999995 68.504 52.88451 71.126Q47.41051 73.748 40.14251 73.748Z M95.34251 73.19600000000001Q86.23451 73.19600000000001 81.22051 68.274Q76.20651000000001 63.352000000000004 76.20651000000001 54.52000000000001V34.37200000000001H67.74251000000001V22.412000000000006H68.20251Q72.06651000000001 22.412000000000006 74.13651000000002 20.480000000000008Q76.20651000000001 18.54800000000001 76.20651000000001 14.684000000000005V11.004000000000005H90.00651V22.412000000000006H101.78251V34.37200000000001H90.00651V53.60000000000001Q90.00651 56.176 90.92651000000001 57.878Q91.84651 59.580000000000005 93.77851 60.408Q95.71051 61.236000000000004 98.56251 61.236000000000004Q99.20651000000001 61.236000000000004 100.03451000000001 61.144000000000005Q100.86251 61.05200000000001 101.78251 60.96000000000001V72.644Q100.40251 72.828 98.65451 73.012Q96.90651 73.19600000000001 95.34251 73.19600000000001Z M125.33451000000001 73.748Q119.26251 73.748 114.98451 71.126Q110.70651000000001 68.504 108.49851000000001 63.812000000000005Q106.29051000000001 59.120000000000005 106.29051000000001 52.864000000000004V22.412000000000006H120.09051000000001V51.760000000000005Q120.09051000000001 54.61200000000001 121.24051 56.77400000000001Q122.39051 58.93600000000001 124.50651 60.132000000000005Q126.62251 61.328 129.29051 61.328Q132.05051 61.328 134.12051000000002 60.132000000000005Q136.19051000000002 58.93600000000001 137.34051 56.77400000000001Q138.49051 54.61200000000001 138.49051 51.760000000000005V22.412000000000006H152.29051V72.644H139.41051000000002V62.708000000000006L140.14651 64.91600000000001Q138.39851000000002 69.424 134.48851000000002 71.58600000000001Q130.57851 73.748 125.33451000000001 73.748Z M184.49051000000003 73.748Q176.94651000000002 73.748 170.92051000000004 70.298Q164.89451000000003 66.848 161.35251000000002 60.868Q157.81051000000002 54.888000000000005 157.81051000000002 47.43600000000001Q157.81051000000002 39.98400000000001 161.30651 34.05000000000001Q164.80251 28.116000000000007 170.87451000000001 24.712000000000007Q176.94651000000002 21.308000000000007 184.49051000000003 21.308000000000007Q190.10251000000002 21.308000000000007 194.88651000000004 23.240000000000006Q199.67051000000004 25.172000000000004 203.07451000000003 28.622000000000003Q206.47851000000003 32.072 207.95051 36.764L195.99051000000003 41.91600000000001Q194.70251000000002 38.144000000000005 191.62051000000002 35.93600000000001Q188.53851000000003 33.72800000000001 184.49051000000003 33.72800000000001Q180.90251 33.72800000000001 178.09651000000002 35.476000000000006Q175.29051 37.224000000000004 173.68051000000003 40.352000000000004Q172.07051 43.480000000000004 172.07051 47.528000000000006Q172.07051 51.57600000000001 173.68051000000003 54.70400000000001Q175.29051 57.83200000000001 178.09651000000002 59.580000000000005Q180.90251 61.328 184.49051000000003 61.328Q188.63051000000002 61.328 191.66651000000002 59.120000000000005Q194.70251000000002 56.912000000000006 195.99051000000003 53.14L207.95051 58.38400000000001Q206.57051 62.800000000000004 203.16651000000002 66.296Q199.76251000000002 69.792 194.97851000000003 71.77000000000001Q190.19451000000004 73.748 184.49051000000003 73.748Z M213.47051000000002 72.644V3.0H227.27051V47.620000000000005L222.11851000000001 45.964000000000006L244.29051 22.412000000000006H261.31051L243.09451 42.652L261.21851000000004 72.644H245.57851000000002L230.39851000000002 47.16000000000001L238.40251 45.13600000000001L223.03851000000003 61.88000000000001L227.27051 53.876000000000005V72.644Z M280.35451 73.748Q274.92651 73.748 270.97051 72.0Q267.01451 70.25200000000001 264.89851 66.986Q262.78251 63.720000000000006 262.78251 59.212Q262.78251 54.980000000000004 264.71451 51.714000000000006Q266.64651 48.44800000000001 270.64851 46.24000000000001Q274.65051 44.03200000000001 280.63051 43.11200000000001L295.99451 40.62800000000001V50.748000000000005L283.11451 53.048Q280.17051 53.60000000000001 278.60650999999996 54.934000000000005Q277.04251 56.268 277.04251 58.75200000000001Q277.04251 61.05200000000001 278.79051 62.34Q280.53851 63.62800000000001 283.11451 63.62800000000001Q286.51851 63.62800000000001 289.09451 62.156000000000006Q291.67051 60.684000000000005 293.09650999999997 58.15400000000001Q294.52251 55.62400000000001 294.52251 52.58800000000001V39.52400000000001Q294.52251 36.672000000000004 292.26851 34.74000000000001Q290.01451 32.80800000000001 286.15051 32.80800000000001Q282.47051 32.80800000000001 279.66451 34.83200000000001Q276.85851 36.85600000000001 275.57051 40.168000000000006L264.53051 34.92400000000001Q266.00251000000003 30.692000000000007 269.22251000000006 27.656000000000006Q272.44251 24.620000000000005 276.95051 22.964000000000006Q281.45851 21.308000000000007 286.79451 21.308000000000007Q293.14251 21.308000000000007 298.01851 23.608000000000008Q302.89450999999997 25.90800000000001 305.60851 30.002000000000006Q308.32251 34.096000000000004 308.32251 39.52400000000001V72.644H295.44250999999997V64.548L298.57051 63.99600000000001Q296.36251 67.308 293.69451000000004 69.47Q291.02651000000003 71.632 287.71451 72.69Q284.40251 73.748 280.35451 73.748Z M340.06251 73.19600000000001Q330.95451 73.19600000000001 325.94051 68.274Q320.92651 63.352000000000004 320.92651 54.52000000000001V34.37200000000001H312.46251V22.412000000000006H312.92251Q316.78651 22.412000000000006 318.85651 20.480000000000008Q320.92651 18.54800000000001 320.92651 14.684000000000005V11.004000000000005H334.72651V22.412000000000006H346.50251000000003V34.37200000000001H334.72651V53.60000000000001Q334.72651 56.176 335.64651000000003 57.878Q336.56651 59.580000000000005 338.49851 60.408Q340.43051 61.236000000000004 343.28251 61.236000000000004Q343.92651 61.236000000000004 344.75451 61.144000000000005Q345.58251 61.05200000000001 346.50251000000003 60.96000000000001V72.644Q345.12251000000003 72.828 343.37451 73.012Q341.62651 73.19600000000001 340.06251 73.19600000000001Z M376.95451 73.748Q369.50251000000003 73.748 363.38451 70.34400000000001Q357.26651 66.94000000000001 353.63251 61.00600000000001Q349.99851 55.072 349.99851 47.528000000000006Q349.99851 39.892 353.63251 34.004000000000005Q357.26651 28.116000000000007 363.38451 24.712000000000007Q369.50251000000003 21.308000000000007 376.95451 21.308000000000007Q384.40651 21.308000000000007 390.47851 24.712000000000007Q396.55051000000003 28.116000000000007 400.18451000000005 34.004000000000005Q403.81851 39.892 403.81851 47.528000000000006Q403.81851 55.072 400.18451000000005 61.00600000000001Q396.55051000000003 66.94000000000001 390.47851 70.34400000000001Q384.40651 73.748 376.95451 73.748ZM376.95451 61.328Q380.72651 61.328 383.53251 59.580000000000005Q386.33851 57.83200000000001 387.94851 54.70400000000001Q389.55851 51.57600000000001 389.55851 47.528000000000006Q389.55851 43.480000000000004 387.94851 40.398Q386.33851 37.316 383.53251 35.522000000000006Q380.72651 33.72800000000001 376.95451 33.72800000000001Q373.18251 33.72800000000001 370.33051 35.522000000000006Q367.47851 37.316 365.86851 40.398Q364.25851 43.480000000000004 364.25851 47.528000000000006Q364.25851 51.57600000000001 365.86851 54.70400000000001Q367.47851 57.83200000000001 370.33051 59.580000000000005Q373.18251 61.328 376.95451 61.328Z" fill="#000000"/><circle cx="9.2" cy="90.3" r="7.1" fill="#000000"/><circle cx="68.6" cy="90.3" r="7.1" fill="#000000"/>
  <path d="M18.458 121.33040482806054Q16.896 121.33040482806054 15.598 120.74740482806054Q14.3 120.16440482806054 13.398 119.15240482806054Q12.496 118.14040482806054 12.1 116.88640482806053L13.969999999999999 116.11640482806054Q14.564 117.70040482806054 15.741 118.54740482806054Q16.918 119.39440482806054 18.502 119.39440482806054Q19.47 119.39440482806054 20.195999999999998 119.08640482806055Q20.921999999999997 118.77840482806054 21.328999999999997 118.21740482806055Q21.735999999999997 117.65640482806054 21.735999999999997 116.90840482806054Q21.735999999999997 115.87440482806055 21.153 115.26940482806054Q20.57 114.66440482806054 19.448 114.35640482806055L16.433999999999997 113.43240482806054Q14.652 112.88240482806054 13.706 111.69440482806054Q12.76 110.50640482806054 12.76 108.96640482806055Q12.76 107.62440482806055 13.408999999999999 106.60140482806054Q14.058 105.57840482806054 15.213 104.99540482806054Q16.368 104.41240482806055 17.842 104.41240482806055Q19.316 104.41240482806055 20.515 104.94040482806054Q21.714 105.46840482806054 22.549999999999997 106.35940482806055Q23.386 107.25040482806054 23.782 108.39440482806054L21.933999999999997 109.16440482806054Q21.406 107.77840482806054 20.349999999999998 107.06340482806054Q19.293999999999997 106.34840482806054 17.864 106.34840482806054Q16.984 106.34840482806054 16.313000000000002 106.64540482806055Q15.642 106.94240482806055 15.279 107.50340482806055Q14.916 108.06440482806055 14.916 108.83440482806054Q14.916 109.73640482806054 15.488 110.44040482806054Q16.06 111.14440482806054 17.226 111.51840482806054L19.976 112.33240482806055Q21.912 112.92640482806054 22.902 114.02640482806055Q23.892 115.12640482806054 23.892 116.75440482806054Q23.892 118.09640482806054 23.198999999999998 119.13040482806053Q22.506 120.16440482806054 21.285 120.74740482806054Q20.064 121.33040482806054 18.458 121.33040482806054Z M28.116 121.06640482806054V104.41240482806055H30.162V111.51840482806054L29.788 111.32040482806055Q30.228 110.19840482806055 31.207 109.57140482806054Q32.186 108.94440482806054 33.506 108.94440482806054Q34.782 108.94440482806054 35.783 109.51640482806054Q36.784 110.08840482806055 37.367000000000004 111.10040482806055Q37.95 112.11240482806055 37.95 113.38840482806054V121.06640482806054H35.882V114.04840482806054Q35.882 113.05840482806055 35.519 112.37640482806054Q35.156 111.69440482806054 34.518 111.30940482806054Q33.88 110.92440482806055 33.044 110.92440482806055Q32.23 110.92440482806055 31.57 111.30940482806054Q30.91 111.69440482806054 30.536 112.38740482806054Q30.162 113.08040482806054 30.162 114.04840482806054V121.06640482806054Z M47.828 121.33040482806054Q46.112 121.33040482806054 44.726 120.52740482806054Q43.34 119.72440482806054 42.526 118.31640482806054Q41.712 116.90840482806054 41.712 115.12640482806054Q41.712 113.34440482806055 42.515 111.95840482806054Q43.318000000000005 110.57240482806054 44.70400000000001 109.75840482806055Q46.09 108.94440482806054 47.828 108.94440482806054Q49.544 108.94440482806054 50.93 109.74740482806054Q52.316 110.55040482806054 53.119 111.93640482806055Q53.922 113.32240482806054 53.922 115.12640482806054Q53.922 116.93040482806055 53.086 118.32740482806054Q52.25 119.72440482806054 50.875 120.52740482806054Q49.5 121.33040482806054 47.828 121.33040482806054ZM47.828 119.35040482806055Q48.928 119.35040482806055 49.819 118.80040482806055Q50.71 118.25040482806054 51.227000000000004 117.28240482806055Q51.744 116.31440482806055 51.744 115.12640482806054Q51.744 113.91640482806054 51.227000000000004 112.98140482806053Q50.71 112.04640482806055 49.819 111.48540482806055Q48.928 110.92440482806055 47.828 110.92440482806055Q46.706 110.92440482806055 45.815 111.48540482806055Q44.924 112.04640482806055 44.396 112.98140482806053Q43.868 113.91640482806054 43.868 115.12640482806054Q43.868 116.31440482806055 44.396 117.28240482806055Q44.924 118.25040482806054 45.815 118.80040482806055Q46.706 119.35040482806055 47.828 119.35040482806055Z M57.904 121.06640482806054V109.20840482806054H59.906V111.38640482806053L59.686 111.07840482806054Q60.104 110.06640482806054 60.962 109.57140482806054Q61.82 109.07640482806055 63.052 109.07640482806055H63.778V111.01240482806054H62.744Q61.49 111.01240482806054 60.72 111.79340482806055Q59.95 112.57440482806054 59.95 114.00440482806054V121.06640482806054Z M71.742 121.19840482806055Q70.004 121.19840482806055 69.069 120.20840482806054Q68.134 119.21840482806054 68.134 117.41440482806054V111.16640482806054H65.97800000000001V109.20840482806054H66.418Q67.21000000000001 109.20840482806054 67.672 108.72440482806054Q68.134 108.24040482806055 68.134 107.44840482806055V106.48040482806054H70.18V109.20840482806054H72.842V111.16640482806054H70.18V117.34840482806054Q70.18 117.94240482806055 70.367 118.38240482806054Q70.554 118.82240482806054 70.994 119.07540482806054Q71.434 119.32840482806054 72.16 119.32840482806054Q72.31400000000001 119.32840482806054 72.54500000000002 119.30640482806055Q72.77600000000001 119.28440482806054 72.974 119.26240482806054V121.06640482806054Q72.688 121.13240482806054 72.33600000000001 121.16540482806055Q71.98400000000001 121.19840482806055 71.742 121.19840482806055Z M88.22 121.33040482806054Q86.79 121.33040482806054 85.613 120.69240482806055Q84.436 120.05440482806054 83.798 118.88840482806054L84.084 118.53640482806054V121.06640482806054H82.08200000000001V104.41240482806055H84.128V111.76040482806054L83.82000000000001 111.25440482806054Q84.48 110.19840482806055 85.624 109.57140482806054Q86.768 108.94440482806054 88.242 108.94440482806054Q89.914 108.94440482806054 91.245 109.75840482806055Q92.57600000000001 110.57240482806054 93.346 111.96940482806053Q94.116 113.36640482806054 94.116 115.14840482806054Q94.116 116.88640482806053 93.346 118.29440482806054Q92.57600000000001 119.70240482806054 91.245 120.51640482806053Q89.914 121.33040482806054 88.22 121.33040482806054ZM88.066 119.35040482806055Q89.188 119.35040482806055 90.06800000000001 118.80040482806055Q90.94800000000001 118.25040482806054 91.44300000000001 117.29340482806055Q91.938 116.33640482806054 91.938 115.14840482806054Q91.938 113.91640482806054 91.44300000000001 112.98140482806053Q90.94800000000001 112.04640482806055 90.06800000000001 111.48540482806055Q89.188 110.92440482806055 88.066 110.92440482806055Q86.944 110.92440482806055 86.053 111.47440482806054Q85.162 112.02440482806054 84.64500000000001 112.98140482806053Q84.128 113.93840482806054 84.128 115.14840482806054Q84.128 116.33640482806054 84.64500000000001 117.29340482806055Q85.162 118.25040482806054 86.053 118.80040482806055Q86.944 119.35040482806055 88.066 119.35040482806055Z M102.322 121.33040482806054Q101.046 121.33040482806054 100.023 120.73640482806053Q99.0 120.14240482806053 98.439 119.07540482806054Q97.878 118.00840482806055 97.878 116.62240482806054V109.20840482806054H99.924V116.40240482806054Q99.924 117.28240482806054 100.287 117.94240482806055Q100.65 118.60240482806054 101.299 118.97640482806054Q101.94800000000001 119.35040482806055 102.784 119.35040482806055Q103.62 119.35040482806055 104.269 118.97640482806054Q104.918 118.60240482806054 105.281 117.89840482806054Q105.644 117.19440482806054 105.644 116.22640482806054V109.20840482806054H107.712V121.06640482806054H105.71000000000001V118.75640482806054L106.04 118.95440482806055Q105.622 120.07640482806055 104.62100000000001 120.70340482806054Q103.62 121.33040482806054 102.322 121.33040482806054Z M112.2 121.06640482806054V109.20840482806054H114.202V111.38640482806053L113.982 111.07840482806054Q114.4 110.06640482806054 115.25800000000001 109.57140482806054Q116.116 109.07640482806055 117.348 109.07640482806055H118.074V111.01240482806054H117.03999999999999Q115.786 111.01240482806054 115.01599999999999 111.79340482806055Q114.246 112.57440482806054 114.246 114.00440482806054V121.06640482806054Z M125.466 121.33040482806054Q123.684 121.33040482806054 122.364 120.45040482806054Q121.044 119.57040482806055 120.494 118.07440482806054L122.122 117.28240482806054Q122.628 118.33840482806055 123.508 118.95440482806055Q124.38799999999999 119.57040482806055 125.466 119.57040482806055Q126.434 119.57040482806055 127.072 119.10840482806054Q127.71 118.64640482806054 127.71 117.89840482806054Q127.71 117.37040482806054 127.413 117.05140482806054Q127.116 116.73240482806054 126.69800000000001 116.54540482806054Q126.28 116.35840482806054 125.928 116.27040482806055L124.146 115.76440482806055Q122.53999999999999 115.30240482806055 121.803 114.44440482806054Q121.066 113.58640482806054 121.066 112.44240482806055Q121.066 111.38640482806053 121.60499999999999 110.60540482806053Q122.14399999999999 109.82440482806054 123.079 109.38440482806054Q124.014 108.94440482806054 125.17999999999999 108.94440482806054Q126.74199999999999 108.94440482806054 127.985 109.73640482806054Q129.228 110.52840482806054 129.756 111.95840482806054L128.084 112.72840482806055Q127.68799999999999 111.80440482806054 126.89599999999999 111.26540482806054Q126.104 110.72640482806054 125.11399999999999 110.72640482806054Q124.21199999999999 110.72640482806054 123.684 111.17740482806053Q123.15599999999999 111.62840482806054 123.15599999999999 112.31040482806054Q123.15599999999999 112.81640482806054 123.41999999999999 113.13540482806054Q123.684 113.45440482806055 124.05799999999999 113.61940482806054Q124.43199999999999 113.78440482806054 124.78399999999999 113.89440482806054L126.72 114.46640482806055Q128.172 114.88440482806054 128.975 115.76440482806055Q129.778 116.64440482806054 129.778 117.87640482806054Q129.778 118.86640482806054 129.228 119.65840482806054Q128.678 120.45040482806054 127.71 120.89040482806054Q126.74199999999999 121.33040482806054 125.466 121.33040482806054Z M138.6 121.19840482806055Q136.862 121.19840482806055 135.92700000000002 120.20840482806054Q134.99200000000002 119.21840482806054 134.99200000000002 117.41440482806054V111.16640482806054H132.836V109.20840482806054H133.276Q134.068 109.20840482806054 134.53000000000003 108.72440482806054Q134.99200000000002 108.24040482806055 134.99200000000002 107.44840482806055V106.48040482806054H137.038V109.20840482806054H139.70000000000002V111.16640482806054H137.038V117.34840482806054Q137.038 117.94240482806055 137.22500000000002 118.38240482806054Q137.412 118.82240482806054 137.852 119.07540482806054Q138.292 119.32840482806054 139.018 119.32840482806054Q139.172 119.32840482806054 139.40300000000002 119.30640482806055Q139.63400000000001 119.28440482806054 139.832 119.26240482806054V121.06640482806054Q139.54600000000002 121.13240482806054 139.19400000000002 121.16540482806055Q138.842 121.19840482806055 138.6 121.19840482806055Z M148.06000000000003 121.33040482806054Q146.27800000000002 121.33040482806054 144.95800000000003 120.45040482806054Q143.638 119.57040482806055 143.08800000000002 118.07440482806054L144.716 117.28240482806054Q145.222 118.33840482806055 146.10200000000003 118.95440482806055Q146.98200000000003 119.57040482806055 148.06000000000003 119.57040482806055Q149.02800000000002 119.57040482806055 149.66600000000003 119.10840482806054Q150.30400000000003 118.64640482806054 150.30400000000003 117.89840482806054Q150.30400000000003 117.37040482806054 150.007 117.05140482806054Q149.71 116.73240482806054 149.29200000000003 116.54540482806054Q148.87400000000002 116.35840482806054 148.52200000000002 116.27040482806055L146.74 115.76440482806055Q145.13400000000001 115.30240482806055 144.39700000000002 114.44440482806054Q143.66000000000003 113.58640482806054 143.66000000000003 112.44240482806055Q143.66000000000003 111.38640482806053 144.199 110.60540482806053Q144.73800000000003 109.82440482806054 145.673 109.38440482806054Q146.608 108.94440482806054 147.77400000000003 108.94440482806054Q149.336 108.94440482806054 150.579 109.73640482806054Q151.822 110.52840482806054 152.35000000000002 111.95840482806054L150.67800000000003 112.72840482806055Q150.282 111.80440482806054 149.49 111.26540482806054Q148.698 110.72640482806054 147.70800000000003 110.72640482806054Q146.806 110.72640482806054 146.27800000000002 111.17740482806053Q145.75000000000003 111.62840482806054 145.75000000000003 112.31040482806054Q145.75000000000003 112.81640482806054 146.014 113.13540482806054Q146.27800000000002 113.45440482806055 146.65200000000002 113.61940482806054Q147.026 113.78440482806054 147.37800000000001 113.89440482806054L149.31400000000002 114.46640482806055Q150.76600000000002 114.88440482806054 151.56900000000002 115.76440482806055Q152.372 116.64440482806054 152.372 117.87640482806054Q152.372 118.86640482806054 151.822 119.65840482806054Q151.27200000000002 120.45040482806054 150.30400000000003 120.89040482806054Q149.336 121.33040482806054 148.06000000000003 121.33040482806054Z M157.21200000000002 121.06640482806054V118.42640482806054H159.34600000000003V121.06640482806054Z M170.03800000000004 121.06640482806054V104.67640482806054H175.82400000000004Q177.45200000000006 104.67640482806054 178.68400000000005 105.29240482806054Q179.91600000000005 105.90840482806054 180.60900000000004 107.05240482806053Q181.30200000000005 108.19640482806054 181.30200000000005 109.73640482806054Q181.30200000000005 111.47440482806054 180.42200000000005 112.68440482806054Q179.54200000000006 113.89440482806054 178.04600000000005 114.42240482806054L181.85200000000003 121.06640482806054H179.34400000000005L175.34000000000003 113.96040482806055L176.77000000000004 114.79640482806055H172.19400000000005V121.06640482806054ZM172.19400000000005 112.81640482806054H175.89000000000004Q176.85800000000003 112.81640482806054 177.58400000000006 112.44240482806055Q178.31000000000006 112.06840482806054 178.71700000000004 111.36440482806054Q179.12400000000005 110.66040482806054 179.12400000000005 109.73640482806054Q179.12400000000005 108.79040482806055 178.71700000000004 108.09740482806055Q178.31000000000006 107.40440482806054 177.58400000000006 107.03040482806054Q176.85800000000003 106.65640482806054 175.89000000000004 106.65640482806054H172.19400000000005Z M190.82800000000003 121.33040482806054Q189.11200000000005 121.33040482806054 187.77000000000004 120.51640482806053Q186.42800000000003 119.70240482806054 185.65800000000002 118.28340482806054Q184.88800000000003 116.86440482806054 184.88800000000003 115.10440482806054Q184.88800000000003 113.32240482806054 185.64700000000005 111.93640482806055Q186.40600000000003 110.55040482806054 187.71500000000003 109.74740482806054Q189.02400000000003 108.94440482806054 190.65200000000004 108.94440482806054Q191.97200000000004 108.94440482806054 192.99500000000003 109.41740482806054Q194.01800000000003 109.89040482806054 194.73300000000003 110.69340482806055Q195.44800000000004 111.49640482806055 195.83300000000003 112.51940482806054Q196.21800000000005 113.54240482806054 196.21800000000005 114.64240482806053Q196.21800000000005 114.88440482806054 196.18500000000006 115.18140482806055Q196.15200000000004 115.47840482806055 196.10800000000003 115.74240482806054H186.38400000000004V113.98240482806054H194.92000000000004L193.95200000000003 114.77440482806054Q194.15000000000003 113.63040482806053 193.73200000000003 112.72840482806055Q193.31400000000005 111.82640482806055 192.50000000000006 111.29840482806054Q191.68600000000004 110.77040482806055 190.65200000000004 110.77040482806055Q189.61800000000005 110.77040482806055 188.76000000000005 111.29840482806054Q187.90200000000004 111.82640482806055 187.42900000000003 112.80540482806055Q186.95600000000005 113.78440482806054 187.04400000000004 115.12640482806054Q186.95600000000005 116.42440482806055 187.45100000000002 117.40340482806054Q187.94600000000003 118.38240482806054 188.85900000000004 118.92140482806055Q189.77200000000005 119.46040482806055 190.85000000000005 119.46040482806055Q192.03800000000004 119.46040482806055 192.85200000000003 118.91040482806054Q193.66600000000005 118.36040482806054 194.17200000000003 117.50240482806055L195.88800000000003 118.38240482806054Q195.53600000000003 119.19640482806054 194.79900000000004 119.86740482806053Q194.06200000000004 120.53840482806054 193.06100000000004 120.93440482806054Q192.06000000000003 121.33040482806054 190.82800000000003 121.33040482806054Z M203.67600000000004 121.33040482806054Q202.51000000000005 121.33040482806054 201.61900000000003 120.90140482806055Q200.72800000000004 120.47240482806055 200.22200000000004 119.71340482806055Q199.71600000000004 118.95440482806055 199.71600000000004 117.96440482806054Q199.71600000000004 117.01840482806054 200.12300000000005 116.25940482806054Q200.53000000000003 115.50040482806054 201.39900000000003 114.97240482806055Q202.26800000000003 114.44440482806054 203.58800000000005 114.22440482806054L207.98800000000006 113.49840482806054V115.21440482806054L204.05000000000004 115.87440482806055Q202.90600000000003 116.07240482806054 202.38900000000004 116.60040482806053Q201.87200000000004 117.12840482806054 201.87200000000004 117.89840482806054Q201.87200000000004 118.62440482806055 202.45500000000004 119.10840482806054Q203.03800000000004 119.59240482806054 203.91800000000003 119.59240482806054Q205.04000000000005 119.59240482806054 205.86500000000007 119.11940482806054Q206.69000000000005 118.64640482806054 207.16300000000007 117.83240482806053Q207.63600000000005 117.01840482806054 207.63600000000005 116.02840482806054V113.01440482806055Q207.63600000000005 112.04640482806055 206.92100000000005 111.44140482806054Q206.20600000000005 110.83640482806054 205.04000000000005 110.83640482806054Q204.02800000000005 110.83640482806054 203.24700000000004 111.35340482806055Q202.46600000000004 111.87040482806054 202.09200000000004 112.72840482806055L200.31000000000003 111.80440482806054Q200.64000000000004 110.99040482806055 201.36600000000004 110.34140482806055Q202.09200000000004 109.69240482806055 203.06000000000006 109.31840482806055Q204.02800000000005 108.94440482806054 205.08400000000003 108.94440482806054Q206.44800000000004 108.94440482806054 207.48200000000003 109.46140482806055Q208.51600000000005 109.97840482806055 209.09900000000005 110.89140482806054Q209.68200000000004 111.80440482806054 209.68200000000004 113.01440482806055V121.06640482806054H207.68000000000004V118.82240482806054L208.05400000000003 118.95440482806055Q207.68000000000004 119.65840482806054 207.04200000000003 120.18640482806055Q206.40400000000005 120.71440482806054 205.54600000000005 121.02240482806053Q204.68800000000005 121.33040482806054 203.67600000000004 121.33040482806054Z M214.17000000000004 121.06640482806054V104.41240482806055H216.21600000000004V121.06640482806054Z M225.83000000000004 125.46640482806055V109.20840482806054H227.83200000000005V111.76040482806054L227.56800000000004 111.25440482806054Q228.22800000000004 110.19840482806055 229.37200000000004 109.57140482806054Q230.51600000000005 108.94440482806054 231.99000000000004 108.94440482806054Q233.66200000000003 108.94440482806054 234.99300000000005 109.75840482806055Q236.32400000000004 110.57240482806054 237.09400000000005 111.96940482806053Q237.86400000000003 113.36640482806054 237.86400000000003 115.14840482806054Q237.86400000000003 116.88640482806053 237.09400000000005 118.29440482806054Q236.32400000000004 119.70240482806054 234.99300000000005 120.51640482806053Q233.66200000000003 121.33040482806054 231.96800000000005 121.33040482806054Q230.53800000000004 121.33040482806054 229.36100000000005 120.69240482806055Q228.18400000000003 120.05440482806054 227.54600000000005 118.88840482806054L227.87600000000003 118.53640482806054V125.46640482806055ZM231.81400000000005 119.35040482806055Q232.93600000000004 119.35040482806055 233.81600000000003 118.80040482806055Q234.69600000000003 118.25040482806054 235.19100000000003 117.29340482806055Q235.68600000000004 116.33640482806054 235.68600000000004 115.14840482806054Q235.68600000000004 113.91640482806054 235.19100000000003 112.98140482806053Q234.69600000000003 112.04640482806055 233.81600000000003 111.48540482806055Q232.93600000000004 110.92440482806055 231.81400000000005 110.92440482806055Q230.69200000000004 110.92440482806055 229.80100000000004 111.47440482806054Q228.91000000000003 112.02440482806054 228.39300000000003 112.98140482806053Q227.87600000000003 113.93840482806054 227.87600000000003 115.14840482806054Q227.87600000000003 116.33640482806054 228.39300000000003 117.29340482806055Q228.91000000000003 118.25040482806054 229.80100000000004 118.80040482806055Q230.69200000000004 119.35040482806055 231.81400000000005 119.35040482806055Z M241.86800000000005 121.06640482806054V109.20840482806054H243.87000000000006V111.38640482806053L243.65000000000003 111.07840482806054Q244.06800000000004 110.06640482806054 244.92600000000004 109.57140482806054Q245.78400000000005 109.07640482806055 247.01600000000005 109.07640482806055H247.74200000000005V111.01240482806054H246.70800000000006Q245.45400000000004 111.01240482806054 244.68400000000003 111.79340482806055Q243.91400000000004 112.57440482806054 243.91400000000004 114.00440482806054V121.06640482806054Z M256.52000000000004 121.33040482806054Q254.80400000000006 121.33040482806054 253.41800000000006 120.52740482806054Q252.03200000000007 119.72440482806054 251.21800000000007 118.31640482806054Q250.40400000000005 116.90840482806054 250.40400000000005 115.12640482806054Q250.40400000000005 113.34440482806055 251.20700000000005 111.95840482806054Q252.01000000000005 110.57240482806054 253.39600000000007 109.75840482806055Q254.78200000000007 108.94440482806054 256.52000000000004 108.94440482806054Q258.23600000000005 108.94440482806054 259.62200000000007 109.74740482806054Q261.00800000000004 110.55040482806054 261.81100000000004 111.93640482806055Q262.61400000000003 113.32240482806054 262.61400000000003 115.12640482806054Q262.61400000000003 116.93040482806055 261.778 118.32740482806054Q260.94200000000006 119.72440482806054 259.56700000000006 120.52740482806054Q258.19200000000006 121.33040482806054 256.52000000000004 121.33040482806054ZM256.52000000000004 119.35040482806055Q257.62000000000006 119.35040482806055 258.5110000000001 118.80040482806055Q259.40200000000004 118.25040482806054 259.91900000000004 117.28240482806055Q260.43600000000004 116.31440482806055 260.43600000000004 115.12640482806054Q260.43600000000004 113.91640482806054 259.91900000000004 112.98140482806053Q259.40200000000004 112.04640482806055 258.5110000000001 111.48540482806055Q257.62000000000006 110.92440482806055 256.52000000000004 110.92440482806055Q255.39800000000005 110.92440482806055 254.50700000000006 111.48540482806055Q253.61600000000007 112.04640482806055 253.08800000000008 112.98140482806053Q252.56000000000006 113.91640482806054 252.56000000000006 115.12640482806054Q252.56000000000006 116.31440482806055 253.08800000000008 117.28240482806055Q253.61600000000007 118.25040482806054 254.50700000000006 118.80040482806055Q255.39800000000005 119.35040482806055 256.52000000000004 119.35040482806055Z M272.25000000000006 125.90640482806054Q270.99600000000004 125.90640482806054 269.9290000000001 125.51040482806054Q268.8620000000001 125.11440482806054 268.10300000000007 124.42140482806055Q267.34400000000005 123.72840482806055 266.94800000000004 122.80440482806054L268.8620000000001 121.92440482806055Q269.1700000000001 122.76040482806054 270.0390000000001 123.34340482806054Q270.9080000000001 123.92640482806054 272.22800000000007 123.92640482806054Q273.24000000000007 123.92640482806054 274.06500000000005 123.54140482806054Q274.89000000000004 123.15640482806054 275.374 122.39740482806054Q275.85800000000006 121.63840482806054 275.85800000000006 120.56040482806054V117.89840482806054L276.2320000000001 118.29440482806054Q275.61600000000004 119.50440482806054 274.461 120.14240482806053Q273.30600000000004 120.78040482806054 271.9200000000001 120.78040482806054Q270.24800000000005 120.78040482806054 268.92800000000005 119.99940482806053Q267.60800000000006 119.21840482806054 266.86000000000007 117.86540482806055Q266.1120000000001 116.51240482806054 266.1120000000001 114.86240482806055Q266.1120000000001 113.19040482806054 266.86000000000007 111.84840482806054Q267.60800000000006 110.50640482806054 268.91700000000003 109.72540482806053Q270.22600000000006 108.94440482806054 271.8980000000001 108.94440482806054Q273.28400000000005 108.94440482806054 274.41700000000003 109.57140482806054Q275.55000000000007 110.19840482806055 276.2320000000001 111.29840482806054L275.92400000000004 111.84840482806054V109.20840482806054H277.92600000000004V120.56040482806054Q277.92600000000004 122.10040482806055 277.20000000000005 123.31040482806054Q276.47400000000005 124.52040482806053 275.187 125.21340482806053Q273.90000000000003 125.90640482806054 272.25000000000006 125.90640482806054ZM272.09600000000006 118.80040482806054Q273.15200000000004 118.80040482806054 273.999 118.27240482806053Q274.84600000000006 117.74440482806054 275.3520000000001 116.85340482806055Q275.85800000000006 115.96240482806054 275.85800000000006 114.86240482806055Q275.85800000000006 113.78440482806054 275.3520000000001 112.88240482806054Q274.84600000000006 111.98040482806054 273.999 111.45240482806054Q273.15200000000004 110.92440482806055 272.09600000000006 110.92440482806055Q271.01800000000003 110.92440482806055 270.13800000000003 111.45240482806054Q269.25800000000004 111.98040482806054 268.76300000000003 112.87140482806055Q268.26800000000003 113.76240482806054 268.26800000000003 114.86240482806055Q268.26800000000003 115.96240482806054 268.76300000000003 116.85340482806055Q269.25800000000004 117.74440482806054 270.12700000000007 118.27240482806053Q270.99600000000004 118.80040482806054 272.09600000000006 118.80040482806054Z M282.41400000000004 121.06640482806054V109.20840482806054H284.41600000000005V111.38640482806053L284.196 111.07840482806054Q284.61400000000003 110.06640482806054 285.47200000000004 109.57140482806054Q286.33000000000004 109.07640482806055 287.562 109.07640482806055H288.28800000000007V111.01240482806054H287.254Q286.00000000000006 111.01240482806054 285.23 111.79340482806055Q284.46000000000004 112.57440482806054 284.46000000000004 114.00440482806054V121.06640482806054Z M296.89000000000004 121.33040482806054Q295.17400000000004 121.33040482806054 293.832 120.51640482806053Q292.49 119.70240482806054 291.72 118.28340482806054Q290.95000000000005 116.86440482806054 290.95000000000005 115.10440482806054Q290.95000000000005 113.32240482806054 291.70900000000006 111.93640482806055Q292.468 110.55040482806054 293.77700000000004 109.74740482806054Q295.086 108.94440482806054 296.714 108.94440482806054Q298.03400000000005 108.94440482806054 299.057 109.41740482806054Q300.08000000000004 109.89040482806054 300.7950000000001 110.69340482806055Q301.51000000000005 111.49640482806055 301.89500000000004 112.51940482806054Q302.28000000000003 113.54240482806054 302.28000000000003 114.64240482806053Q302.28000000000003 114.88440482806054 302.247 115.18140482806055Q302.214 115.47840482806055 302.17 115.74240482806054H292.446V113.98240482806054H300.982L300.014 114.77440482806054Q300.21200000000005 113.63040482806053 299.79400000000004 112.72840482806055Q299.37600000000003 111.82640482806055 298.562 111.29840482806054Q297.74800000000005 110.77040482806055 296.714 110.77040482806055Q295.68 110.77040482806055 294.822 111.29840482806054Q293.964 111.82640482806055 293.491 112.80540482806055Q293.01800000000003 113.78440482806054 293.106 115.12640482806054Q293.01800000000003 116.42440482806055 293.51300000000003 117.40340482806054Q294.00800000000004 118.38240482806054 294.92100000000005 118.92140482806055Q295.834 119.46040482806055 296.91200000000003 119.46040482806055Q298.1 119.46040482806055 298.914 118.91040482806054Q299.728 118.36040482806054 300.23400000000004 117.50240482806055L301.95000000000005 118.38240482806054Q301.598 119.19640482806054 300.861 119.86740482806053Q300.124 120.53840482806054 299.12300000000005 120.93440482806054Q298.122 121.33040482806054 296.89000000000004 121.33040482806054Z M310.508 121.33040482806054Q308.726 121.33040482806054 307.406 120.45040482806054Q306.086 119.57040482806055 305.536 118.07440482806054L307.164 117.28240482806054Q307.67 118.33840482806055 308.55 118.95440482806055Q309.43 119.57040482806055 310.508 119.57040482806055Q311.476 119.57040482806055 312.11400000000003 119.10840482806054Q312.752 118.64640482806054 312.752 117.89840482806054Q312.752 117.37040482806054 312.45500000000004 117.05140482806054Q312.158 116.73240482806054 311.74 116.54540482806054Q311.322 116.35840482806054 310.96999999999997 116.27040482806055L309.188 115.76440482806055Q307.582 115.30240482806055 306.845 114.44440482806054Q306.108 113.58640482806054 306.108 112.44240482806055Q306.108 111.38640482806053 306.647 110.60540482806053Q307.186 109.82440482806054 308.121 109.38440482806054Q309.056 108.94440482806054 310.222 108.94440482806054Q311.784 108.94440482806054 313.027 109.73640482806054Q314.27 110.52840482806054 314.798 111.95840482806054L313.126 112.72840482806055Q312.73 111.80440482806054 311.938 111.26540482806054Q311.146 110.72640482806054 310.156 110.72640482806054Q309.254 110.72640482806054 308.726 111.17740482806053Q308.198 111.62840482806054 308.198 112.31040482806054Q308.198 112.81640482806054 308.462 113.13540482806054Q308.726 113.45440482806055 309.1 113.61940482806054Q309.474 113.78440482806054 309.826 113.89440482806054L311.762 114.46640482806055Q313.214 114.88440482806054 314.017 115.76440482806055Q314.82 116.64440482806054 314.82 117.87640482806054Q314.82 118.86640482806054 314.27 119.65840482806054Q313.71999999999997 120.45040482806054 312.75199999999995 120.89040482806054Q311.784 121.33040482806054 310.508 121.33040482806054Z M323.07 121.33040482806054Q321.288 121.33040482806054 319.968 120.45040482806054Q318.648 119.57040482806055 318.098 118.07440482806054L319.726 117.28240482806054Q320.232 118.33840482806055 321.112 118.95440482806055Q321.992 119.57040482806055 323.07 119.57040482806055Q324.038 119.57040482806055 324.67600000000004 119.10840482806054Q325.314 118.64640482806054 325.314 117.89840482806054Q325.314 117.37040482806054 325.01700000000005 117.05140482806054Q324.72 116.73240482806054 324.302 116.54540482806054Q323.884 116.35840482806054 323.532 116.27040482806055L321.75 115.76440482806055Q320.144 115.30240482806055 319.40700000000004 114.44440482806054Q318.67 113.58640482806054 318.67 112.44240482806055Q318.67 111.38640482806053 319.209 110.60540482806053Q319.748 109.82440482806054 320.683 109.38440482806054Q321.618 108.94440482806054 322.784 108.94440482806054Q324.346 108.94440482806054 325.589 109.73640482806054Q326.832 110.52840482806054 327.36 111.95840482806054L325.688 112.72840482806055Q325.29200000000003 111.80440482806054 324.5 111.26540482806054Q323.708 110.72640482806054 322.718 110.72640482806054Q321.81600000000003 110.72640482806054 321.288 111.17740482806053Q320.76 111.62840482806054 320.76 112.31040482806054Q320.76 112.81640482806054 321.024 113.13540482806054Q321.288 113.45440482806055 321.66200000000003 113.61940482806054Q322.036 113.78440482806054 322.38800000000003 113.89440482806054L324.324 114.46640482806055Q325.776 114.88440482806054 326.579 115.76440482806055Q327.382 116.64440482806054 327.382 117.87640482806054Q327.382 118.86640482806054 326.832 119.65840482806054Q326.282 120.45040482806054 325.31399999999996 120.89040482806054Q324.346 121.33040482806054 323.07 121.33040482806054Z M332.22200000000004 121.06640482806054V118.42640482806054H334.356V121.06640482806054Z" fill="#000000" opacity="0.85"/>
</svg>
